<?xml version="1.0" encoding="UTF-8"?>
<svg width="73px" height="73px" viewBox="0 0 73 73" version="1.1" xmlns="http://www.w3.org/2000/svg" xmlns:xlink="http://www.w3.org/1999/xlink">
    <!-- Generator: Sketch 52 (66869) - http://www.bohemiancoding.com/sketch -->
    <title>desktop/icon/large/symbols/IO_Overview/Potential_Efficiencies</title>
    <desc>Created with Sketch.</desc>
    <g id="desktop/icon/large/symbols/IO_Overview/Potential_Efficiencies" stroke="none" stroke-width="1" fill="none" fill-rule="evenodd" stroke-linecap="round" stroke-linejoin="round">
        <g id="Group" transform="translate(8.000000, 8.000000)" stroke="#202020" stroke-width="1.5">
            <g id="accounting-invoice-hand">
                <path d="M14.535,22.36 C15.6329846,23.804228 17.3672764,24.6209693 19.18,24.5475 C22.0275,24.5475 24.3375,22.815 24.3375,20.68 C24.3375,18.545 22.0275,16.815 19.18,16.815 C16.3325,16.815 14.025,15.0825 14.025,12.945 C14.025,10.8075 16.335,9.0775 19.18,9.0775 C20.9927236,9.00403072 22.7270154,9.820772 23.825,11.265" id="Shape"></path>
                <path d="M19.18,24.5475 L19.18,27.125" id="Shape"></path>
                <path d="M19.18,6.5 L19.18,9.0775" id="Shape"></path>
                <path d="M57.125,51.465 L53.4,45.875 L53.4,32.75 C53.4,27.75 43.9,22.4025 40.275,19.625" id="Shape"></path>
                <path d="M45.1,35.985 L35.98,28.675 C34.707674,27.402674 32.644826,27.402674 31.3725,28.675 C30.100174,29.947326 30.100174,32.010174 31.3725,33.2825 L40.205,43.25 L40.205,49.5 C40.205,52.4525 44.425,57.1125 44.425,57.1125" id="Shape"></path>
                <path d="M32.775,57.125 L4.335,57.125 C2.43749756,57.12362 0.899999498,55.5850029 0.9,53.6875 L0.9,4.3125 C0.899999498,2.41499705 2.43749756,0.876380002 4.335,0.875 L36.835,0.875 C38.7338837,0.874999499 40.27362,2.41361684 40.275,4.3125 L40.275,32.1175" id="Shape"></path>
                <path d="M25.275,34.625 L10.275,34.625 C9.23946609,34.625 8.4,35.4644661 8.4,36.5 L8.4,47.75 C8.4,48.7855339 9.23946609,49.625 10.275,49.625 L32.775,49.625" id="Shape"></path>
                <path d="M8.4,42.125 L29.025,42.125" id="Shape"></path>
                <path d="M19.65,34.625 L19.65,49.625" id="Shape"></path>
            </g>
        </g>
    </g>
</svg>