<svg width="26" height="26" viewBox="0 0 26 26" fill="none" xmlns="http://www.w3.org/2000/svg">
<path fill-rule="evenodd" clip-rule="evenodd" d="M17.565 2H8C5.23858 2 3 4.23858 3 7L3 20C3 22.7614 5.23858 25 8 25H19C21.7614 25 24 22.7614 24 20V8.43503L22 6.47656V20C22 21.6569 20.6569 23 19 23H8C6.34315 23 5 21.6569 5 20V7C5 5.34315 6.34315 4 8 4H19.5L17.565 2Z" fill="#0099FA"/>
<path d="M17.3903 10.0231C16.7867 10.0638 16.2854 9.56328 16.3252 8.95956L16.7048 3.20121C16.7614 2.34356 19 3.5 19.5 4L23.1406 7.58657C23.7478 8.19383 23.9974 9.57756 23.1406 9.63533L17.3903 10.0231Z" fill="#0099FA"/>
<path fill-rule="evenodd" clip-rule="evenodd" d="M17.9122 23.0353C17.6586 20.8648 15.713 19.1766 13.3506 19.1766C10.9882 19.1766 9.04266 20.8648 8.78899 23.0353H6.74046C7.00086 19.7976 9.86084 17.2473 13.3506 17.2473C16.8404 17.2473 19.7004 19.7976 19.9608 23.0353H17.9122Z" fill="#0099FA"/>
<path d="M11.8814 23.0353C11.8814 23.5681 11.4248 24 10.8615 24C10.2982 24 9.8416 23.5681 9.8416 23.0353C9.8416 22.5025 10.2982 22.0706 10.8615 22.0706C11.4248 22.0706 11.8814 22.5025 11.8814 23.0353Z" fill="#0099FA"/>
<path d="M16.9203 23.0353C16.9203 23.5681 16.4637 24 15.9004 24C15.3371 24 14.8805 23.5681 14.8805 23.0353C14.8805 22.5025 15.3371 22.0706 15.9004 22.0706C16.4637 22.0706 16.9203 22.5025 16.9203 23.0353Z" fill="#0099FA"/>
<path fill-rule="evenodd" clip-rule="evenodd" d="M7.74111 16.2825L10.8009 19.1766L9.35847 20.5408L6.29873 17.6468C5.90042 17.2701 5.90042 16.6593 6.29873 16.2825C6.69703 15.9058 7.3428 15.9058 7.74111 16.2825Z" fill="#0099FA"/>
<path fill-rule="evenodd" clip-rule="evenodd" d="M20.7013 17.6468L17.6415 20.5409L16.1991 19.1766L19.2589 16.2826C19.6572 15.9058 20.303 15.9058 20.7013 16.2826C21.0996 16.6593 21.0996 17.2701 20.7013 17.6468Z" fill="#0099FA"/>
</svg>
